<svg width="31" height="30" viewBox="0 0 31 30" fill="none" xmlns="http://www.w3.org/2000/svg">
<path d="M15.144 18.9916C10.1585 18.9916 6.11707 14.9952 6.11707 10.0654C6.11707 5.1356 10.1585 1.13921 15.144 1.13921C20.1294 1.13921 24.1709 5.13563 24.1709 10.0654C24.1709 14.9952 20.1294 18.9916 15.144 18.9916ZM15.144 2.93514C11.168 2.93514 7.93342 6.13371 7.93342 10.0654C7.93342 13.9971 11.168 17.1957 15.144 17.1957C19.1201 17.1957 22.3547 13.9971 22.3547 10.0654C22.3547 6.13371 19.1201 2.93514 15.144 2.93514ZM27.548 28.8608H26.7815C26.4988 28.8608 26.2606 28.6574 26.2136 28.3818C26.1361 27.9299 26.0297 27.4876 25.8872 27.0649C25.1615 24.496 23.5042 22.2564 21.2259 20.7876C19.3734 21.8189 17.2932 22.3591 15.144 22.3591C12.989 22.3591 10.9038 21.816 9.04776 20.7793C6.7626 22.248 5.1 24.4906 4.37303 27.0649C4.37303 27.0649 4.22968 27.5973 4.02747 28.4243C3.9649 28.6799 3.73348 28.8608 3.46755 28.8608H2.71204C2.43621 28.8608 2.22299 28.6202 2.25882 28.3495C2.81649 24.1431 5.43566 20.5803 9.08051 18.6801C10.7997 19.8658 12.889 20.563 15.144 20.563C17.3939 20.563 19.479 19.8691 21.1962 18.6882C24.8326 20.5905 27.4447 24.1492 28.0012 28.3495C28.0371 28.6201 27.824 28.8608 27.548 28.8608Z" fill="#FF954D"/>
</svg>
