<svg width="20" height="18" viewBox="0 0 20 18" fill="currentColor" xmlns="http://www.w3.org/2000/svg">
<path d="M14.4646 12.345L17.6746 15.555L16.6096 16.62L13.3996 13.41C12.8096 13.88 12.1646 14.24 11.4646 14.49C10.7246 14.75 9.96457 14.88 9.18457 14.88C7.96457 14.88 6.82957 14.575 5.77957 13.965C4.75957 13.365 3.95457 12.555 3.36457 11.535C2.74457 10.485 2.43457 9.35 2.43457 8.13C2.43457 6.91 2.74457 5.775 3.36457 4.725C3.95457 3.705 4.75957 2.9 5.77957 2.31C6.82957 1.69 7.96457 1.38 9.18457 1.38C10.4046 1.38 11.5396 1.69 12.5896 2.31C13.6096 2.9 14.4196 3.705 15.0196 4.725C15.6296 5.775 15.9346 6.91 15.9346 8.13C15.9346 8.91 15.8046 9.67 15.5446 10.41C15.2946 11.11 14.9346 11.755 14.4646 12.345ZM12.9496 11.79C13.4196 11.31 13.7846 10.76 14.0446 10.14C14.3046 9.5 14.4346 8.83 14.4346 8.13C14.4346 7.18 14.1946 6.295 13.7146 5.475C13.2546 4.685 12.6296 4.06 11.8396 3.6C11.0196 3.12 10.1346 2.88 9.18457 2.88C8.23457 2.88 7.34957 3.12 6.52957 3.6C5.73957 4.06 5.11457 4.685 4.65457 5.475C4.17457 6.295 3.93457 7.18 3.93457 8.13C3.93457 9.08 4.17457 9.965 4.65457 10.785C5.11457 11.575 5.73957 12.2 6.52957 12.66C7.34957 13.14 8.23457 13.38 9.18457 13.38C9.88457 13.38 10.5546 13.25 11.1946 12.99C11.8146 12.73 12.3646 12.365 12.8446 11.895L12.9496 11.79Z" fill="#555555"/>
</svg>
