<svg width="31" height="30" viewBox="0 0 31 30" fill="none" xmlns="http://www.w3.org/2000/svg">
<path d="M15.7994 3.75L19.3611 11.0983L27.4577 12.2442L21.6194 18.1183L22.9661 26.25L15.7994 22.545L8.63274 26.25L9.97607 18.1167L4.14274 12.2425L12.2394 11.0967L15.7994 3.75ZM15.7994 2.08333C15.4371 2.08164 15.0816 2.18185 14.7735 2.37252C14.4654 2.5632 14.2171 2.83665 14.0569 3.16167L11.0411 9.4225L4.10274 10.4542C3.75645 10.504 3.43042 10.6477 3.15998 10.8697C2.88954 11.0917 2.68502 11.3834 2.56857 11.7133C2.45596 12.0405 2.43823 12.3928 2.51741 12.7296C2.5966 13.0664 2.76948 13.374 3.01607 13.6167L8.09941 18.695L6.92024 25.7367C6.86373 26.0858 6.90814 26.4439 7.04824 26.7687C7.18834 27.0935 7.41831 27.3715 7.71107 27.57C8.00864 27.7729 8.35615 27.8904 8.71582 27.9097C9.07549 27.9289 9.43355 27.8492 9.75107 27.6792L15.7994 24.53L21.8486 27.6825C22.1664 27.8525 22.5247 27.9322 22.8846 27.913C23.2446 27.8937 23.5923 27.7763 23.8902 27.5733C24.1825 27.3745 24.412 27.0964 24.5517 26.7716C24.6913 26.4468 24.7353 26.0889 24.6786 25.74L23.4986 18.6983L28.5819 13.62C28.8284 13.3772 29.0011 13.0696 29.0801 12.7328C29.1592 12.396 29.1413 12.0437 29.0286 11.7167C28.9121 11.3868 28.7076 11.095 28.4372 10.873C28.1667 10.6511 27.8407 10.5074 27.4944 10.4575L20.5569 9.42583L17.5402 3.165C17.381 2.83936 17.1332 2.56518 16.8253 2.37387C16.5175 2.18256 16.1619 2.08187 15.7994 2.08333Z" fill="#FF954D"/>
</svg>
