<svg width="31" height="30" viewBox="0 0 31 30" fill="none" xmlns="http://www.w3.org/2000/svg">
<path d="M10.9097 24.3581C9.87473 24.3581 9.03566 25.1972 9.03566 26.2322C9.03566 27.2672 9.87473 28.1062 10.9097 28.1062C11.9447 28.1062 12.7838 27.2672 12.7838 26.2322C12.7838 25.1972 11.9447 24.3581 10.9097 24.3581ZM24.0272 24.3581C22.9922 24.3581 22.1532 25.1972 22.1532 26.2322C22.1532 27.2672 22.9922 28.1062 24.0272 28.1062C25.0622 28.1062 25.9013 27.2672 25.9013 26.2322C25.9013 25.1972 25.0622 24.3581 24.0272 24.3581ZM25.8863 23.4216H10.6669C9.31691 23.4216 8.13004 22.3538 7.96504 20.9897L6.37598 9.8025L5.47129 4.57406C5.41504 4.1175 4.99879 3.74531 4.59285 3.74531H3.39941C2.88191 3.74531 2.46191 3.32531 2.46191 2.80875C2.46191 2.29125 2.88191 1.87125 3.39941 1.87125H4.59285C5.95973 1.87125 7.15973 2.93906 7.32566 4.30313L8.22754 9.51187L9.82316 20.7469C9.87566 21.1819 10.2694 21.5484 10.666 21.5484H25.8854C26.4038 21.5484 26.8229 21.9675 26.8229 22.485C26.8229 23.0025 26.4038 23.4216 25.8863 23.4216ZM11.8379 19.6734C11.3513 19.6734 10.9407 19.2984 10.9041 18.8053C10.8657 18.2887 11.2538 17.8406 11.7685 17.8031L24.4791 16.8666C24.946 16.8637 25.3388 16.4972 25.3904 16.0809L26.866 7.63687C26.9035 7.32187 26.8163 6.97687 26.6279 6.76406C26.5069 6.62719 26.355 6.55781 26.1779 6.55781H9.95723C9.43973 6.55781 9.01973 6.13781 9.01973 5.62125C9.01973 5.10375 9.43973 4.68469 9.95723 4.68469H26.1797C26.896 4.68469 27.5532 4.98187 28.0322 5.52281C28.5797 6.14062 28.831 7.01062 28.7213 7.9125L27.2447 16.3575C27.0854 17.6709 25.8994 18.7388 24.5494 18.7388L11.9072 19.6706C11.8838 19.6725 11.8604 19.6734 11.8379 19.6734Z" fill="#FF954D"/>
</svg>
