<svg width="25" height="25" viewBox="0 0 25 25" fill="none" xmlns="http://www.w3.org/2000/svg">
<path d="M9.375 22.6562H4.6875C4.0659 22.6562 3.46976 22.4093 3.03022 21.9698C2.59068 21.5302 2.34375 20.9341 2.34375 20.3125V15.625C2.34375 15.0034 2.59068 14.4073 3.03022 13.9677C3.46976 13.5282 4.0659 13.2812 4.6875 13.2812H9.375C9.9966 13.2812 10.5927 13.5282 11.0323 13.9677C11.4718 14.4073 11.7188 15.0034 11.7188 15.625V20.3125C11.7188 20.9341 11.4718 21.5302 11.0323 21.9698C10.5927 22.4093 9.9966 22.6562 9.375 22.6562ZM4.6875 14.8438C4.4803 14.8438 4.28159 14.9261 4.13507 15.0726C3.98856 15.2191 3.90625 15.4178 3.90625 15.625V20.3125C3.90625 20.5197 3.98856 20.7184 4.13507 20.8649C4.28159 21.0114 4.4803 21.0938 4.6875 21.0938H9.375C9.5822 21.0938 9.78091 21.0114 9.92743 20.8649C10.0739 20.7184 10.1562 20.5197 10.1562 20.3125V15.625C10.1562 15.4178 10.0739 15.2191 9.92743 15.0726C9.78091 14.9261 9.5822 14.8438 9.375 14.8438H4.6875ZM19.1406 22.6562H15.625C15.0034 22.6562 14.4073 22.4093 13.9677 21.9698C13.5282 21.5302 13.2812 20.9341 13.2812 20.3125V15.625C13.2812 15.0034 13.5282 14.4073 13.9677 13.9677C14.4073 13.5282 15.0034 13.2812 15.625 13.2812H20.3125C20.9341 13.2812 21.5302 13.5282 21.9698 13.9677C22.4093 14.4073 22.6562 15.0034 22.6562 15.625V19.1406C22.6562 19.3478 22.5739 19.5465 22.4274 19.6931C22.2809 19.8396 22.0822 19.9219 21.875 19.9219C21.6678 19.9219 21.4691 19.8396 21.3226 19.6931C21.1761 19.5465 21.0938 19.3478 21.0938 19.1406V15.625C21.0938 15.4178 21.0114 15.2191 20.8649 15.0726C20.7184 14.9261 20.5197 14.8438 20.3125 14.8438H15.625C15.4178 14.8438 15.2191 14.9261 15.0726 15.0726C14.9261 15.2191 14.8438 15.4178 14.8438 15.625V20.3125C14.8438 20.5197 14.9261 20.7184 15.0726 20.8649C15.2191 21.0114 15.4178 21.0938 15.625 21.0938H19.1406C19.3478 21.0938 19.5465 21.1761 19.6931 21.3226C19.8396 21.4691 19.9219 21.6678 19.9219 21.875C19.9219 22.0822 19.8396 22.2809 19.6931 22.4274C19.5465 22.5739 19.3478 22.6562 19.1406 22.6562ZM9.375 11.7188H4.6875C4.0659 11.7188 3.46976 11.4718 3.03022 11.0323C2.59068 10.5927 2.34375 9.9966 2.34375 9.375V4.6875C2.34375 4.0659 2.59068 3.46976 3.03022 3.03022C3.46976 2.59068 4.0659 2.34375 4.6875 2.34375H9.375C9.9966 2.34375 10.5927 2.59068 11.0323 3.03022C11.4718 3.46976 11.7188 4.0659 11.7188 4.6875V9.375C11.7188 9.9966 11.4718 10.5927 11.0323 11.0323C10.5927 11.4718 9.9966 11.7188 9.375 11.7188ZM4.6875 3.90625C4.4803 3.90625 4.28159 3.98856 4.13507 4.13507C3.98856 4.28159 3.90625 4.4803 3.90625 4.6875V9.375C3.90625 9.5822 3.98856 9.78091 4.13507 9.92743C4.28159 10.0739 4.4803 10.1562 4.6875 10.1562H9.375C9.5822 10.1562 9.78091 10.0739 9.92743 9.92743C10.0739 9.78091 10.1562 9.5822 10.1562 9.375V4.6875C10.1562 4.4803 10.0739 4.28159 9.92743 4.13507C9.78091 3.98856 9.5822 3.90625 9.375 3.90625H4.6875ZM20.3125 11.7188H15.625C15.0034 11.7188 14.4073 11.4718 13.9677 11.0323C13.5282 10.5927 13.2812 9.9966 13.2812 9.375V4.6875C13.2812 4.0659 13.5282 3.46976 13.9677 3.03022C14.4073 2.59068 15.0034 2.34375 15.625 2.34375H20.3125C20.9341 2.34375 21.5302 2.59068 21.9698 3.03022C22.4093 3.46976 22.6562 4.0659 22.6562 4.6875V9.375C22.6562 9.9966 22.4093 10.5927 21.9698 11.0323C21.5302 11.4718 20.9341 11.7188 20.3125 11.7188ZM15.625 3.90625C15.4178 3.90625 15.2191 3.98856 15.0726 4.13507C14.9261 4.28159 14.8438 4.4803 14.8438 4.6875V9.375C14.8438 9.5822 14.9261 9.78091 15.0726 9.92743C15.2191 10.0739 15.4178 10.1562 15.625 10.1562H20.3125C20.5197 10.1562 20.7184 10.0739 20.8649 9.92743C21.0114 9.78091 21.0938 9.5822 21.0938 9.375V4.6875C21.0938 4.4803 21.0114 4.28159 20.8649 4.13507C20.7184 3.98856 20.5197 3.90625 20.3125 3.90625H15.625Z" fill="#FF954D"/>
</svg>
