<svg width="50" height="50" viewBox="0 0 50 50" fill="none" xmlns="http://www.w3.org/2000/svg">
<g clip-path="url(#clip0_8_120)">
<g clip-path="url(#clip1_8_120)">
<g clip-path="url(#clip2_8_120)">
<path d="M1.2334 37.3625C1.2334 40.4479 2.45906 43.4069 4.64075 45.5886C6.82244 47.7703 9.78145 48.9959 12.8668 48.9959C15.9522 48.9959 18.9112 47.7703 21.0929 45.5886C23.2746 43.4069 24.5002 40.4479 24.5002 37.3625C24.5002 34.2771 23.2746 31.3181 21.0929 29.1364C18.9112 26.9547 15.9522 25.7291 12.8668 25.7291C9.78145 25.7291 6.82244 26.9547 4.64075 29.1364C2.45906 31.3181 1.2334 34.2771 1.2334 37.3625Z" fill="white"/>
<path d="M25.5405 34.4792C25.5405 36.0069 25.8414 37.5196 26.4261 38.9311C27.0107 40.3425 27.8676 41.625 28.9479 42.7052C30.0281 43.7855 31.3106 44.6424 32.722 45.227C34.1335 45.8117 35.6462 46.1126 37.174 46.1126C38.7017 46.1126 40.2144 45.8117 41.6259 45.227C43.0373 44.6424 44.3198 43.7855 45.4 42.7052C46.4803 41.625 47.3372 40.3425 47.9218 38.9311C48.5065 37.5196 48.8074 36.0069 48.8074 34.4792C48.8074 32.9514 48.5065 31.4387 47.9218 30.0272C47.3372 28.6158 46.4803 27.3333 45.4 26.2531C44.3198 25.1728 43.0373 24.3159 41.6259 23.7313C40.2144 23.1466 38.7017 22.8457 37.174 22.8457C35.6462 22.8457 34.1335 23.1466 32.722 23.7313C31.3106 24.3159 30.0281 25.1728 28.9479 26.2531C27.8676 27.3333 27.0107 28.6158 26.4261 30.0272C25.8414 31.4387 25.5405 32.9514 25.5405 34.4792Z" fill="white"/>
<path d="M12.3123 26.2318C8.24178 28.2269 5.43115 32.3997 5.43115 37.2418C5.43115 42.0839 8.24315 46.2539 12.3123 48.249C16.3842 46.2518 19.1941 42.0791 19.1941 37.2418C19.1941 32.4045 16.3842 28.2269 12.3123 26.2318Z" fill="#FECD57"/>
<path d="M12.7608 25.6187C11.7707 25.6224 10.7851 25.7529 9.82812 26.0068C14.8239 27.3079 18.5179 31.8366 18.5179 37.2418C18.5179 42.647 14.8239 47.1702 9.82812 48.4719C11.4252 48.8896 13.0929 48.962 14.7201 48.6844C16.3473 48.4069 17.8967 47.7856 19.2649 46.8622C20.6332 45.9387 21.7889 44.7342 22.6551 43.329C23.5212 41.9237 24.0779 40.35 24.288 38.7127C24.4981 37.0754 24.3568 35.4121 23.8736 33.8337C23.3903 32.2553 22.5762 30.798 21.4854 29.559C20.3947 28.32 19.0523 27.3277 17.5479 26.6482C16.0435 25.9688 14.4116 25.6178 12.7608 25.6187Z" fill="#FFAC1F"/>
<path d="M36.8305 23.3238C32.7606 25.3189 29.9507 29.4917 29.9507 34.331C29.9507 39.1704 32.7606 43.3459 36.8305 45.3348C40.9031 43.3459 43.713 39.1711 43.713 34.331C43.713 29.491 40.9031 25.3189 36.8305 23.3238Z" fill="#FF954D"/>
<path d="M37.2794 22.7099C36.2893 22.7137 35.3037 22.8442 34.3467 23.0981C39.3417 24.4012 43.0344 28.9279 43.0344 34.331C43.0344 39.7342 39.3424 44.2622 34.3474 45.5632C35.9444 45.9809 37.6121 46.0533 39.2393 45.7757C40.8665 45.4981 42.4159 44.8769 43.7842 43.9535C45.1524 43.03 46.3082 41.8255 47.1743 40.4203C48.0405 39.015 48.5971 37.4413 48.8072 35.804C49.0174 34.1667 48.8761 32.5034 48.3928 30.925C47.9096 29.3466 47.0954 27.8893 46.0047 26.6503C44.9139 25.4113 43.5716 24.419 42.0672 23.7395C40.5628 23.0601 38.9308 22.7091 37.2801 22.7099H37.2794Z" fill="#65A347"/>
<path d="M32.2021 2.27977H15.7478C15.4455 2.27977 15.1555 2.15968 14.9418 1.94591C14.728 1.73214 14.6079 1.4422 14.6079 1.13989C14.6079 0.83757 14.728 0.547635 14.9418 0.333865C15.1555 0.120095 15.4455 0 15.7478 0L32.2021 0C32.5044 0 32.7943 0.120095 33.0081 0.333865C33.2219 0.547635 33.342 0.83757 33.342 1.13989C33.342 1.4422 33.2219 1.73214 33.0081 1.94591C32.7943 2.15968 32.5044 2.27977 32.2021 2.27977Z" fill="#3D4750"/>
<path d="M13.0481 26.3552C12.7599 26.3551 12.4824 26.2455 12.2717 26.0487C12.061 25.8519 11.9329 25.5825 11.9131 25.2949C10.8699 10.4318 22.8325 0.91905 23.3421 0.521256C23.5804 0.335082 23.8829 0.251193 24.183 0.288043C24.4832 0.324893 24.7564 0.479464 24.9425 0.717752C25.1287 0.956041 25.2126 1.25853 25.1758 1.55867C25.1389 1.85881 24.9843 2.13201 24.746 2.31819C24.6301 2.40872 13.2306 11.5038 14.1839 25.1351C14.1945 25.2844 14.1755 25.4342 14.1281 25.5761C14.0808 25.7181 14.0059 25.8493 13.9078 25.9622C13.8097 26.0752 13.6904 26.1678 13.5565 26.2346C13.4227 26.3015 13.277 26.3413 13.1277 26.3518C13.0996 26.3539 13.0749 26.3552 13.0481 26.3552Z" fill="#3D4750"/>
<path d="M34.6006 23.8505C34.4202 23.8503 34.2425 23.8073 34.0821 23.725C29.2399 21.2449 26.9245 16.2869 25.8347 12.5641C24.4074 7.69045 24.4211 2.75094 25.3272 1.19543C25.4025 1.06609 25.5027 0.952873 25.6218 0.86223C25.7409 0.771588 25.8768 0.7053 26.0215 0.667151C26.1663 0.629003 26.3172 0.61974 26.4655 0.639893C26.6138 0.660046 26.7568 0.70922 26.8861 0.784606C27.0154 0.859992 27.1287 0.960115 27.2193 1.07926C27.3099 1.1984 27.3762 1.33423 27.4144 1.47899C27.4525 1.62375 27.4618 1.77461 27.4416 1.92295C27.4215 2.07129 27.3723 2.21421 27.2969 2.34355C26.895 3.0294 26.6515 7.2419 28.0219 11.9235C28.9862 15.2156 31.0005 19.5852 35.1211 21.6956C35.3486 21.8125 35.5302 22.0026 35.6367 22.2352C35.7432 22.4678 35.7684 22.7294 35.7082 22.9781C35.6481 23.2267 35.5061 23.4479 35.3051 23.6062C35.1041 23.7644 34.8557 23.8504 34.5999 23.8505H34.6006ZM12.761 49.9986C5.72481 49.9986 0 44.2752 0 37.2418C0 30.2084 5.72481 24.4787 12.761 24.4787C14.156 24.4774 15.5418 24.7051 16.8631 25.1529C17.1494 25.2501 17.3854 25.457 17.5191 25.7281C17.6529 25.9992 17.6735 26.3124 17.5763 26.5987C17.4792 26.885 17.2723 27.121 17.0012 27.2548C16.73 27.3886 16.4169 27.4091 16.1306 27.312C15.0452 26.9442 13.9069 26.7572 12.761 26.7585C6.98129 26.7578 2.27977 31.46 2.27977 37.2418C2.27977 43.0235 6.98198 47.7223 12.761 47.7223C18.54 47.7223 23.2422 43.018 23.2422 37.2418C23.2491 34.9731 22.5129 32.7646 21.1462 30.9539C20.9643 30.7121 20.8859 30.408 20.9282 30.1085C20.9705 29.8089 21.1301 29.5384 21.3718 29.3565C21.6136 29.1746 21.9177 29.0962 22.2173 29.1385C22.5168 29.1808 22.7873 29.3404 22.9692 29.5822C24.6337 31.7881 25.5303 34.4783 25.5219 37.2418C25.5219 44.2752 19.7971 49.9986 12.761 49.9986Z" fill="#3D4750"/>
<path d="M37.28 47.0913C30.2459 47.0913 24.519 41.3672 24.519 34.331C24.519 27.2949 30.2459 21.57 37.28 21.57C39.3823 21.5687 41.4523 22.0873 43.3057 23.0797C45.159 24.072 46.7382 25.5074 47.9025 27.2578C47.9856 27.3824 48.0433 27.5221 48.0724 27.669C48.1015 27.8158 48.1014 27.967 48.0721 28.1138C48.0427 28.2607 47.9848 28.4003 47.9015 28.5247C47.8182 28.6492 47.7112 28.756 47.5867 28.839C47.4621 28.9221 47.3224 28.9799 47.1755 29.009C47.0286 29.0381 46.8775 29.0379 46.7306 29.0086C46.5838 28.9793 46.4442 28.9213 46.3197 28.838C46.1953 28.7548 46.0885 28.6478 46.0054 28.5232C45.049 27.0852 43.7518 25.9061 42.2293 25.0908C40.7068 24.2755 39.0063 23.8494 37.2793 23.8505C31.4996 23.8505 26.7981 28.552 26.7981 34.331C26.7981 40.11 31.5003 44.8115 37.2793 44.8115C43.0583 44.8115 47.7598 40.11 47.7598 34.331C47.7598 34.1813 47.7893 34.0331 47.8466 33.8948C47.9039 33.7565 47.9878 33.6308 48.0937 33.525C48.1995 33.4191 48.3252 33.3352 48.4635 33.2779C48.6018 33.2206 48.75 33.1911 48.8997 33.1911C49.0494 33.1911 49.1976 33.2206 49.3359 33.2779C49.4742 33.3352 49.5999 33.4191 49.7057 33.525C49.8116 33.6308 49.8956 33.7565 49.9528 33.8948C50.0101 34.0331 50.0396 34.1813 50.0396 34.331C50.0396 41.3672 44.3162 47.0913 37.28 47.0913Z" fill="#3D4750"/>
</g>
</g>
</g>
<defs>
<clipPath id="clip0_8_120">
<rect width="50" height="50" fill="white"/>
</clipPath>
<clipPath id="clip1_8_120">
<rect width="50" height="50" fill="white"/>
</clipPath>
<clipPath id="clip2_8_120">
<rect width="50" height="50" fill="white"/>
</clipPath>
</defs>
</svg>
